replay
version=1
nRows=9
nColumns=40
inDegrees=no
endheader
time	/jointset/ground_pelvis/pelvis_tilt/value	/jointset/ground_pelvis/pelvis_list/value	/jointset/ground_pelvis/pelvis_rotation/value	/jointset/ground_pelvis/pelvis_tx/value	/jointset/ground_pelvis/pelvis_ty/value	/jointset/ground_pelvis/pelvis_tz/value	/jointset/hip_r/hip_flexion_r/value	/jointset/hip_r/hip_adduction_r/value	/jointset/hip_r/hip_rotation_r/value	/jointset/walker_knee_r/knee_angle_r/value	/jointset/patellofemoral_r/knee_angle_r_beta/value	/jointset/ankle_r/ankle_angle_r/value	/jointset/subtalar_r/subtalar_angle_r/value	/jointset/mtp_r/mtp_angle_r/value	/jointset/hip_l/hip_flexion_l/value	/jointset/hip_l/hip_adduction_l/value	/jointset/hip_l/hip_rotation_l/value	/jointset/walker_knee_l/knee_angle_l/value	/jointset/patellofemoral_l/knee_angle_l_beta/value	/jointset/ankle_l/ankle_angle_l/value	/jointset/subtalar_l/subtalar_angle_l/value	/jointset/mtp_l/mtp_angle_l/value	/jointset/back/lumbar_extension/value	/jointset/back/lumbar_bending/value	/jointset/back/lumbar_rotation/value	/jointset/acromial_r/arm_flex_r/value	/jointset/acromial_r/arm_add_r/value	/jointset/acromial_r/arm_rot_r/value	/jointset/elbow_r/elbow_flex_r/value	/jointset/radioulnar_r/pro_sup_r/value	/jointset/radius_hand_r/wrist_flex_r/value	/jointset/radius_hand_r/wrist_dev_r/value	/jointset/acromial_l/arm_flex_l/value	/jointset/acromial_l/arm_add_l/value	/jointset/acromial_l/arm_rot_l/value	/jointset/elbow_l/elbow_flex_l/value	/jointset/radioulnar_l/pro_sup_l/value	/jointset/radius_hand_l/wrist_flex_l/value	/jointset/radius_hand_l/wrist_dev_l/value
0.3	-0.1927719509	-0.1694829716	-0.3726480965	1.175917445	1.057504368	-0.1090635372	0.2672056324	0.1840983208	0.247512086	0.1473015078	0.1473015078	-0.2150287865	-0.1996876378	-5.868720581e-06	0.1657217227	-0.1687328302	-0.2997959745	0.08987628461	0.08987628461	-0.1140320347	-0.1731687801	-1.536705057e-05	0.3314182285	1.063151984	-0.91011829	-0.9183012847	-1.25312712	-1.167920747	0.5228114114	0.08952433874	0.5528724549	-0.7788867555	-0.1006177937	0.7884309665	-1.118025884	1.783786012	0.173051701	0.0002180415549	0.0003427623309
0.302777778	-0.1937490041	-0.1701756127	-0.3737048769	1.175860912	1.057575977	-0.1094271921	0.2676018395	0.1844562225	0.246847935	0.1473450415	0.1473450415	-0.2154483304	-0.2011007539	-5.655358928e-06	0.1671211326	-0.1693844625	-0.2991247354	0.09015786309	0.09015786309	-0.1142602297	-0.1739472571	-1.743170346e-05	0.3330544435	1.0669306	-0.9135349862	-0.9192409535	-1.251135035	-1.169229976	0.519578749	0.08560708825	0.5566612202	-0.7782391584	-0.1009596259	0.78875415	-1.11857798	1.783480295	0.1727720339	0.0002378728994	0.0003577854359
0.305555556	-0.1941736843	-0.1708405882	-0.3748211619	1.175838243	1.05768326	-0.1097525404	0.2673118392	0.1846719831	0.2464425449	0.1473387248	0.1473387248	-0.2157482876	-0.2023794185	-6.772782789e-06	0.1677736209	-0.1698437835	-0.2985294298	0.09040210155	0.09040210155	-0.1139154198	-0.1744840965	-1.604612168e-05	0.3339545939	1.070441208	-0.9167713275	-0.9197767652	-1.249264328	-1.169759175	0.5164215609	0.08136030234	0.5603796744	-0.7774386415	-0.1012404449	0.7890341468	-1.119324615	1.783441048	0.1722895222	0.000236990646	0.0003972510357
0.308333333	-0.1942238754	-0.1715198516	-0.3760658411	1.175839929	1.057816456	-0.1100306545	0.2665156184	0.1848768025	0.2463261848	0.1472844779	0.1472844779	-0.2158709969	-0.2034804399	-8.200244034e-06	0.1678427007	-0.1702611487	-0.2981550223	0.09057191349	0.09057191349	-0.1132944867	-0.1749091352	-1.261822429e-05	0.3342798714	1.073794453	-0.9197680144	-0.9200414797	-1.247443727	-1.169767949	0.5133420774	0.07661888923	0.564132454	-0.7763250954	-0.1014076434	0.7892624834	-1.120036935	1.783450087	0.1718144633	0.0002327813179	0.0004403044023
0.311111111	-0.1940770682	-0.1722526217	-0.3775080278	1.175856405	1.05796581	-0.1102527385	0.2653936955	0.1851987801	0.2465278871	0.1471851822	0.1471851822	-0.2157597907	-0.204361644	-8.718753579e-06	0.1674920179	-0.1707835858	-0.2981451621	0.0906300369	0.0906300369	-0.1126920881	-0.1753504286	-1.044841103e-05	0.334191976	1.077098703	-0.9224670052	-0.9201624433	-1.245603174	-1.169516195	0.5103418568	0.07117701549	0.5680582114	-0.7747074579	-0.101410141	0.7894311062	-1.120489527	1.783294663	0.1715536064	0.0002419361876	0.0004680401436
0.313888889	-0.1939154289	-0.1730174846	-0.3791657427	1.175880779	1.058118683	-0.1104203996	0.2641677278	0.1856767711	0.2469820886	0.1470602796	0.1470602796	-0.215427883	-0.2050421725	-7.951595695e-06	0.1669358749	-0.1714636548	-0.2985491922	0.09055197704	0.09055197704	-0.112259556	-0.1758578871	-1.142230528e-05	0.3339506524	1.080406426	-0.9249211558	-0.9203034564	-1.243699965	-1.169255152	0.5074536147	0.06500476845	0.5722157077	-0.7725408865	-0.1012526321	0.7895627505	-1.120612161	1.782888631	0.1715644985	0.0002694780369	0.0004753399315
0.316666667	-0.19392595	-0.173714261	-0.3809915131	1.175909656	1.058258744	-0.110548645	0.2631123656	0.1862344197	0.2475011931	0.1469507293	0.1469507293	-0.2149798757	-0.2056216593	-6.62288774e-06	0.1664534863	-0.1722314554	-0.2992950556	0.09032925362	0.09032925362	-0.1119616151	-0.176379263	-1.435393819e-05	0.3339423605	1.083697925	-0.9273270013	-0.9206722674	-1.241723767	-1.169229847	0.5047537801	0.05851250565	0.5764017088	-0.7700948914	-0.1010119131	0.7897204085	-1.120536792	1.782308285	0.1717108333	0.0003054374402	0.0004735492196
0.319444444	-0.1942934799	-0.1742363931	-0.382935416	1.175939808	1.058369576	-0.1106531406	0.2625041992	0.1867883508	0.2478911748	0.1468991433	0.1468991433	-0.2145266955	-0.206206012	-5.422496999e-06	0.166325959	-0.1730088937	-0.3003044815	0.08995351438	0.08995351438	-0.1117506125	-0.1768545434	-1.748074961e-05	0.3345609686	1.086948783	-0.9298910327	-0.9214656664	-1.239661936	-1.169695286	0.5023254302	0.05243410037	0.5801828585	-0.7678236803	-0.1007690405	0.7899697407	-1.120409291	1.781640164	0.1718435806	0.0003387673974	0.0004752705863
0.322222222	-0.1951542107	-0.1744904257	-0.3849516906	1.175968963	1.058438682	-0.1107476434	0.2625579904	0.1872587208	0.2479921367	0.1469424079	0.1469424079	-0.2141682102	-0.2068833982	-4.838886344e-06	0.1667750208	-0.1737191523	-0.3014937858	0.08942877426	0.08942877426	-0.1115835682	-0.177231107	-1.921789999e-05	0.3361173303	1.090129204	-0.9327866904	-0.9228185975	-1.237504634	-1.170853393	0.5002326594	0.0476543162	0.5830169246	-0.7662592827	-0.1005898417	0.7903634324	-1.12035847	1.780966658	0.1718325306	0.0003599524736	0.0004915287493
